<svg width="116" height="34" viewBox="0 0 116 34" fill="none" xmlns="http://www.w3.org/2000/svg">
<path d="M20.6201 13.4503C19.5701 8.83031 15.5401 6.75031 12.0001 6.75031C12.0001 6.75031 12.0001 6.75031 11.9901 6.75031C8.4601 6.75031 4.4201 8.82031 3.3701 13.4403C2.2001 18.6003 5.3601 22.9703 8.2201 25.7203C9.2801 26.7403 10.6401 27.2503 12.0001 27.2503C13.3601 27.2503 14.7201 26.7403 15.7701 25.7203C18.6301 22.9703 21.7901 18.6103 20.6201 13.4503ZM12.0001 18.4603C10.2601 18.4603 8.8501 17.0503 8.8501 15.3103C8.8501 13.5703 10.2601 12.1603 12.0001 12.1603C13.7401 12.1603 15.1501 13.5703 15.1501 15.3103C15.1501 17.0503 13.7401 18.4603 12.0001 18.4603Z" fill="#292929"/>
<path d="M32.84 13V3.2H33.904L39.077 11.229V3.2H40.057V13H39L33.82 4.971V13H32.84ZM47.4397 6H48.4197V13H47.4397L47.4047 11.698C47.176 12.1413 46.8564 12.5007 46.4457 12.776C46.035 13.0467 45.545 13.182 44.9757 13.182C44.4624 13.182 43.9817 13.0863 43.5337 12.895C43.0857 12.699 42.6914 12.4307 42.3507 12.09C42.01 11.7493 41.744 11.355 41.5527 10.907C41.3614 10.459 41.2657 9.97833 41.2657 9.465C41.2657 8.961 41.359 8.48733 41.5457 8.044C41.737 7.60067 41.9984 7.211 42.3297 6.875C42.6657 6.539 43.053 6.27767 43.4917 6.091C43.935 5.89967 44.4087 5.804 44.9127 5.804C45.496 5.804 46.0047 5.944 46.4387 6.224C46.8727 6.49933 47.218 6.861 47.4747 7.309L47.4397 6ZM44.9547 12.23C45.454 12.23 45.8834 12.1087 46.2427 11.866C46.602 11.6187 46.8774 11.2873 47.0687 10.872C47.2647 10.4567 47.3627 9.99933 47.3627 9.5C47.3627 8.98667 47.2647 8.52467 47.0687 8.114C46.8727 7.69867 46.595 7.36967 46.2357 7.127C45.8764 6.88433 45.4494 6.763 44.9547 6.763C44.46 6.763 44.0074 6.88667 43.5967 7.134C43.1907 7.37667 42.8664 7.70567 42.6237 8.121C42.3857 8.53633 42.2667 8.996 42.2667 9.5C42.2667 10.0087 42.3904 10.4707 42.6377 10.886C42.885 11.2967 43.2117 11.6233 43.6177 11.866C44.0284 12.1087 44.474 12.23 44.9547 12.23ZM51.9835 13.133C51.6008 13.1237 51.2275 13.0537 50.8635 12.923C50.4995 12.7923 50.1821 12.615 49.9115 12.391C49.6408 12.167 49.4471 11.9127 49.3305 11.628L50.1775 11.264C50.2521 11.446 50.3898 11.614 50.5905 11.768C50.7958 11.9173 51.0291 12.0387 51.2905 12.132C51.5518 12.2207 51.8108 12.265 52.0675 12.265C52.3521 12.265 52.6181 12.2183 52.8655 12.125C53.1128 12.0317 53.3135 11.8987 53.4675 11.726C53.6261 11.5487 53.7055 11.341 53.7055 11.103C53.7055 10.8463 53.6215 10.6457 53.4535 10.501C53.2855 10.3517 53.0731 10.235 52.8165 10.151C52.5598 10.0623 52.2961 9.97833 52.0255 9.899C51.5308 9.76367 51.0945 9.61433 50.7165 9.451C50.3385 9.28767 50.0421 9.08 49.8275 8.828C49.6175 8.57133 49.5125 8.24233 49.5125 7.841C49.5125 7.41633 49.6315 7.05 49.8695 6.742C50.1121 6.42933 50.4271 6.189 50.8145 6.021C51.2065 5.84833 51.6241 5.762 52.0675 5.762C52.6368 5.762 53.1548 5.88567 53.6215 6.133C54.0928 6.38033 54.4335 6.70933 54.6435 7.12L53.8525 7.589C53.7685 7.39767 53.6355 7.232 53.4535 7.092C53.2715 6.952 53.0638 6.84233 52.8305 6.763C52.6018 6.68367 52.3685 6.64167 52.1305 6.637C51.8318 6.63233 51.5541 6.67667 51.2975 6.77C51.0408 6.85867 50.8331 6.99167 50.6745 7.169C50.5205 7.34633 50.4435 7.56333 50.4435 7.82C50.4435 8.07667 50.5205 8.27267 50.6745 8.408C50.8285 8.53867 51.0361 8.646 51.2975 8.73C51.5635 8.80933 51.8621 8.90267 52.1935 9.01C52.6181 9.14533 53.0171 9.29933 53.3905 9.472C53.7638 9.64467 54.0648 9.85933 54.2935 10.116C54.5221 10.3727 54.6341 10.697 54.6295 11.089C54.6295 11.509 54.5035 11.8753 54.2515 12.188C53.9995 12.5007 53.6728 12.741 53.2715 12.909C52.8701 13.0723 52.4408 13.147 51.9835 13.133ZM55.8361 13V6H56.8161V6.966C57.0634 6.61133 57.3854 6.329 57.7821 6.119C58.1788 5.909 58.6104 5.804 59.0771 5.804C59.3478 5.804 59.6091 5.839 59.8611 5.909L59.4621 6.882C59.2661 6.82133 59.0748 6.791 58.8881 6.791C58.5101 6.791 58.1624 6.88433 57.8451 7.071C57.5324 7.25767 57.2828 7.50733 57.0961 7.82C56.9094 8.13267 56.8161 8.48033 56.8161 8.863V13H55.8361ZM68.7393 13.182C68.0766 13.182 67.4536 13.0513 66.8703 12.79C66.2869 12.524 65.7736 12.16 65.3303 11.698C64.8916 11.2313 64.5463 10.69 64.2943 10.074C64.0469 9.458 63.9233 8.8 63.9233 8.1C63.9233 7.4 64.0469 6.742 64.2943 6.126C64.5463 5.51 64.8916 4.971 65.3303 4.509C65.7736 4.04233 66.2869 3.67833 66.8703 3.417C67.4536 3.151 68.0766 3.018 68.7393 3.018C69.5326 3.018 70.2629 3.20233 70.9303 3.571C71.5976 3.93967 72.1506 4.42967 72.5893 5.041L71.7213 5.51C71.3759 5.048 70.9373 4.68167 70.4053 4.411C69.8779 4.13567 69.3226 3.998 68.7393 3.998C68.2026 3.998 67.7009 4.10767 67.2343 4.327C66.7723 4.54167 66.3663 4.838 66.0163 5.216C65.6663 5.594 65.3933 6.03033 65.1973 6.525C65.0013 7.01967 64.9033 7.54467 64.9033 8.1C64.9033 8.66467 65.0013 9.19433 65.1973 9.689C65.3979 10.1837 65.6733 10.62 66.0233 10.998C66.3779 11.376 66.7863 11.6723 67.2483 11.887C67.7149 12.097 68.2119 12.202 68.7393 12.202C69.3459 12.202 69.9083 12.0643 70.4263 11.789C70.9489 11.509 71.3806 11.145 71.7213 10.697L72.5893 11.166C72.1506 11.7773 71.5976 12.2673 70.9303 12.636C70.2629 13 69.5326 13.182 68.7393 13.182ZM74.006 6H74.986V13H74.006V6ZM74.503 4.775C74.3443 4.775 74.209 4.72367 74.097 4.621C73.9897 4.51367 73.936 4.38067 73.936 4.222C73.936 4.06333 73.9897 3.93267 74.097 3.83C74.209 3.72267 74.3443 3.669 74.503 3.669C74.657 3.669 74.7877 3.72267 74.895 3.83C75.007 3.93267 75.063 4.06333 75.063 4.222C75.063 4.38067 75.0093 4.51367 74.902 4.621C74.7947 4.72367 74.6617 4.775 74.503 4.775ZM80.249 6.98H78.576L78.569 13H77.589L77.596 6.98H76.329V6H77.596L77.589 3.802H78.569L78.576 6H80.249V6.98ZM86.1702 6H87.2062L83.3772 16.5H82.3342L83.6082 13L81.0952 6H82.1662L84.0982 11.649L86.1702 6ZM37.376 30.182C36.7133 30.182 36.0903 30.0513 35.507 29.79C34.9237 29.524 34.4103 29.1577 33.967 28.691C33.5283 28.2243 33.183 27.6853 32.931 27.074C32.6837 26.458 32.56 25.8 32.56 25.1C32.56 24.3953 32.6837 23.7373 32.931 23.126C33.183 22.51 33.5283 21.971 33.967 21.509C34.4103 21.0423 34.9237 20.6783 35.507 20.417C36.0903 20.151 36.7133 20.018 37.376 20.018C38.1693 20.018 38.8997 20.2023 39.567 20.571C40.2343 20.935 40.7873 21.4227 41.226 22.034L39.7 22.853C39.4247 22.5123 39.0817 22.2393 38.671 22.034C38.265 21.8287 37.8333 21.726 37.376 21.726C36.9467 21.726 36.543 21.8147 36.165 21.992C35.787 22.1647 35.4557 22.4073 35.171 22.72C34.8863 23.028 34.6647 23.3873 34.506 23.798C34.3473 24.204 34.268 24.638 34.268 25.1C34.268 25.5667 34.3473 26.003 34.506 26.409C34.6693 26.815 34.8933 27.1743 35.178 27.487C35.4627 27.795 35.7917 28.0377 36.165 28.215C36.543 28.3877 36.9467 28.474 37.376 28.474C37.8427 28.474 38.2767 28.3713 38.678 28.166C39.084 27.956 39.4247 27.6807 39.7 27.34L41.226 28.166C40.7873 28.7727 40.2343 29.2603 39.567 29.629C38.8997 29.9977 38.1693 30.182 37.376 30.182ZM47.4559 23H49.1639V30H47.4559L47.3789 29.132C47.1876 29.4447 46.9332 29.699 46.6159 29.895C46.3032 30.0863 45.9322 30.182 45.5029 30.182C44.9849 30.182 44.4996 30.084 44.0469 29.888C43.5942 29.692 43.1952 29.4213 42.8499 29.076C42.5092 28.7307 42.2409 28.3317 42.0449 27.879C41.8536 27.4263 41.7579 26.941 41.7579 26.423C41.7579 25.9237 41.8489 25.4547 42.0309 25.016C42.2176 24.5773 42.4766 24.1923 42.8079 23.861C43.1392 23.5297 43.5219 23.2707 43.9559 23.084C44.3899 22.8973 44.8566 22.804 45.3559 22.804C45.8179 22.804 46.2309 22.9067 46.5949 23.112C46.9636 23.3173 47.2762 23.5787 47.5329 23.896L47.4559 23ZM45.4609 28.537C45.8249 28.537 46.1469 28.446 46.4269 28.264C46.7069 28.082 46.9262 27.837 47.0849 27.529C47.2436 27.2163 47.3229 26.8733 47.3229 26.5C47.3229 26.122 47.2436 25.779 47.0849 25.471C46.9262 25.1583 46.7046 24.911 46.4199 24.729C46.1399 24.547 45.8202 24.456 45.4609 24.456C45.1016 24.456 44.7726 24.5493 44.4739 24.736C44.1799 24.918 43.9442 25.163 43.7669 25.471C43.5942 25.779 43.5079 26.122 43.5079 26.5C43.5079 26.878 43.5966 27.221 43.7739 27.529C43.9512 27.837 44.1869 28.082 44.4809 28.264C44.7796 28.446 45.1062 28.537 45.4609 28.537ZM50.5588 23H52.2668V30H50.5588V23ZM51.4268 22.097C51.1748 22.097 50.9624 22.0153 50.7898 21.852C50.6171 21.684 50.5308 21.474 50.5308 21.222C50.5308 20.9747 50.6171 20.767 50.7898 20.599C50.9624 20.431 51.1724 20.347 51.4198 20.347C51.6671 20.347 51.8748 20.431 52.0428 20.599C52.2154 20.767 52.3018 20.9747 52.3018 21.222C52.3018 21.474 52.2178 21.684 52.0498 21.852C51.8818 22.0153 51.6741 22.097 51.4268 22.097ZM53.9017 30L53.8947 23H55.6027L55.6097 23.623C55.8477 23.371 56.1324 23.1727 56.4637 23.028C56.795 22.8787 57.152 22.804 57.5347 22.804C57.7914 22.804 58.048 22.8413 58.3047 22.916L57.6327 24.638C57.4554 24.568 57.278 24.533 57.1007 24.533C56.8254 24.533 56.5734 24.6007 56.3447 24.736C56.1207 24.8667 55.941 25.0463 55.8057 25.275C55.675 25.499 55.6097 25.7487 55.6097 26.024V30H53.9017ZM61.8419 30.182C61.1979 30.182 60.6099 30.0163 60.0779 29.685C59.5505 29.3537 59.1282 28.9103 58.8109 28.355C58.4982 27.795 58.3419 27.1767 58.3419 26.5C58.3419 25.9867 58.4329 25.5083 58.6149 25.065C58.7969 24.617 59.0465 24.225 59.3639 23.889C59.6859 23.5483 60.0592 23.2823 60.4839 23.091C60.9085 22.8997 61.3612 22.804 61.8419 22.804C62.4859 22.804 63.0715 22.9697 63.5989 23.301C64.1309 23.6323 64.5532 24.078 64.8659 24.638C65.1832 25.198 65.3419 25.8187 65.3419 26.5C65.3419 27.0087 65.2509 27.4847 65.0689 27.928C64.8869 28.3713 64.6349 28.7633 64.3129 29.104C63.9955 29.44 63.6245 29.7037 63.1999 29.895C62.7799 30.0863 62.3272 30.182 61.8419 30.182ZM61.8419 28.474C62.1825 28.474 62.4882 28.383 62.7589 28.201C63.0295 28.019 63.2419 27.7787 63.3959 27.48C63.5545 27.1813 63.6339 26.8547 63.6339 26.5C63.6339 26.136 63.5522 25.8047 63.3889 25.506C63.2302 25.2027 63.0132 24.9623 62.7379 24.785C62.4672 24.603 62.1685 24.512 61.8419 24.512C61.5059 24.512 61.2025 24.603 60.9319 24.785C60.6612 24.967 60.4465 25.2097 60.2879 25.513C60.1292 25.8163 60.0499 26.1453 60.0499 26.5C60.0499 26.8687 60.1315 27.2023 60.2949 27.501C60.4582 27.7997 60.6752 28.0377 60.9459 28.215C61.2212 28.3877 61.5199 28.474 61.8419 28.474Z" fill="#313131"/>
<path d="M112.6 14.5005L107.166 19.9338C106.525 20.5755 105.475 20.5755 104.833 19.9338L99.3998 14.5005" stroke="#292929" stroke-width="1.5" stroke-miterlimit="10" stroke-linecap="round" stroke-linejoin="round"/>
</svg>
